<mxfile host="Electron" modified="2023-07-07T17:41:51.806Z" agent="Mozilla/5.0 (Windows NT 10.0; Win64; x64) AppleWebKit/537.36 (KHTML, like Gecko) draw.io/21.5.0 Chrome/112.0.5615.204 Electron/24.5.1 Safari/537.36" etag="tjCQSHlPjDKOKJ-SynzC" version="21.5.0" type="device">
  <diagram name="Page-1" id="W2-LbGiPlbwGCJvWi5DS">
    <mxGraphModel dx="1276" dy="606" grid="1" gridSize="10" guides="1" tooltips="1" connect="1" arrows="1" fold="1" page="1" pageScale="1" pageWidth="850" pageHeight="1100" math="0" shadow="0">
      <root>
        <mxCell id="0" />
        <mxCell id="1" parent="0" />
        <mxCell id="QkGx7JCvxEpZpOLdKmDq-25" value="Actor" style="shape=umlActor;verticalLabelPosition=bottom;verticalAlign=top;html=1;" vertex="1" parent="1">
          <mxGeometry x="200" y="260" width="30" height="60" as="geometry" />
        </mxCell>
        <mxCell id="QkGx7JCvxEpZpOLdKmDq-26" value="Actor" style="shape=umlActor;verticalLabelPosition=bottom;verticalAlign=top;html=1;" vertex="1" parent="1">
          <mxGeometry x="660" y="260" width="30" height="60" as="geometry" />
        </mxCell>
        <mxCell id="QkGx7JCvxEpZpOLdKmDq-27" value="" style="swimlane;startSize=0;" vertex="1" parent="1">
          <mxGeometry x="250" y="80" width="390" height="410" as="geometry" />
        </mxCell>
        <mxCell id="QkGx7JCvxEpZpOLdKmDq-29" value="Use Case" style="ellipse;whiteSpace=wrap;html=1;" vertex="1" parent="QkGx7JCvxEpZpOLdKmDq-27">
          <mxGeometry x="35" y="40" width="140" height="70" as="geometry" />
        </mxCell>
        <mxCell id="QkGx7JCvxEpZpOLdKmDq-30" value="&amp;lt;&amp;lt;extends&amp;gt;&amp;gt;" style="endArrow=block;endSize=16;endFill=0;html=1;rounded=0;" edge="1" parent="1">
          <mxGeometry width="160" relative="1" as="geometry">
            <mxPoint x="265" y="20" as="sourcePoint" />
            <mxPoint x="425" y="20" as="targetPoint" />
          </mxGeometry>
        </mxCell>
        <mxCell id="QkGx7JCvxEpZpOLdKmDq-31" value="&amp;lt;&amp;lt;include&amp;gt;&amp;gt;" style="endArrow=block;endSize=16;endFill=0;html=1;rounded=0;" edge="1" parent="1">
          <mxGeometry width="160" relative="1" as="geometry">
            <mxPoint x="265" y="50" as="sourcePoint" />
            <mxPoint x="425" y="50" as="targetPoint" />
            <Array as="points">
              <mxPoint x="335" y="50" />
            </Array>
          </mxGeometry>
        </mxCell>
      </root>
    </mxGraphModel>
  </diagram>
</mxfile>
